# Blender v2.80 (sub 75) OBJ File: 'blender krieg .blend'
# www.blender.org
mtllib krieg backpack.mtl
o smd_bone_vis
v 1.447215 -0.894439 -1.051451
v 0.850645 -1.701308 -0.618023
v 1.219093 -1.315038 -0.885713
v 0.525738 -1.051475 -1.618023
v 1.063882 -1.004603 -1.363425
v 0.894431 -0.552795 -1.701297
v 0.723607 -1.447223 -1.175558
v 1.341634 -1.447221 -0.324914
v 6.823946 42.398888 5.194191
v 7.098303 42.712910 4.867939
vt 0.500000 0.157461
vt 0.454545 0.157461
vt 0.477272 0.196826
vt 0.522727 0.118096
vt 0.545454 0.157461
vt 0.499999 0.078731
vt 0.477272 0.118096
vt 0.613636 0.118096
vt 0.590909 0.078731
vt 0.568181 0.118096
vn 0.4151 -0.4399 -0.7964
vn 0.6153 -0.5545 -0.5603
vn 0.4674 -0.7594 -0.4526
vn 0.5087 -0.6369 -0.5792
vn 0.3854 -0.5955 -0.7049
vn 0.5749 -0.7594 -0.3046
vn -0.5013 0.6420 0.5801
usemtl None
s off
f 5/1/1 4/2/1 6/3/1
f 3/4/2 5/1/2 1/5/2
f 2/6/3 7/7/3 3/4/3
f 3/4/4 7/7/4 5/1/4
f 7/7/5 4/2/5 5/1/5
f 8/8/6 2/9/6 3/10/6
f 2/9/7 8/8/7 3/10/7 1/5/7 5/1/7 6/3/7 4/2/7 7/7/7
l 9 10
o kriegsman2_krieg_main2
v -3.387132 58.439350 -9.057280
v 0.000000 58.377068 -9.453726
v -3.791661 54.599010 -9.253335
v -5.876408 53.922604 -7.576115
v 0.000000 50.947762 -8.543253
v -3.202662 51.755394 -8.372639
v -0.001200 54.117329 -9.353122
v 22.956554 40.807426 -5.345381
v 20.919699 43.333752 -5.429331
v 7.708565 62.112762 0.861752
v 8.663137 59.887035 2.726784
v -4.684834 49.246658 7.075175
v -4.985122 49.752399 6.098680
v -3.118269 60.167919 -4.130830
v -1.747568 60.299397 -5.141085
v 25.673489 38.537781 -0.459662
v 25.600805 39.263477 -0.928675
v -25.462345 36.096088 -1.508382
v -25.185209 36.023190 -0.872727
v -5.241133 62.067593 2.277979
v -5.270638 62.471928 3.197659
v 5.328083 62.437653 1.598700
v 5.241135 62.067589 2.277980
v 3.387133 58.439350 -9.057283
v 3.791662 54.599026 -9.253336
v 3.202662 51.755390 -8.372639
v -4.391701 65.633652 -11.840411
v -4.173817 64.392738 -13.773706
v -5.714646 64.457207 -13.363530
v 5.353601 50.668324 -14.316222
v 5.386226 50.673256 -13.598955
v 5.372741 48.718403 -13.839449
v 5.429700 51.104240 -15.375688
v 0.241202 51.113041 -15.279965
v 0.241202 54.436138 -15.259877
v -5.038863 51.104240 -15.375688
v -5.061273 54.409771 -15.386674
v -4.995319 54.151356 -13.599850
v -4.895573 58.038483 -15.328366
v -4.995888 57.015930 -14.238380
v -4.993198 62.606979 -13.556034
v -7.156012 61.015125 -13.673903
v -6.771832 63.198742 -13.370568
v -6.931458 64.812965 -11.921500
v -6.623478 65.101723 -10.347601
v -3.602161 65.883003 -10.094467
v 0.241183 58.045513 -15.353830
v -4.995898 57.017345 -13.359159
v -4.995390 50.673256 -13.598955
v -7.137424 50.990730 -13.515521
v -7.274935 54.022587 -13.375928
v -7.369480 56.986835 -13.321493
v -7.885422 56.992313 -13.799882
v -4.067200 64.213478 -8.607210
v -4.406944 60.126038 -8.747718
v -7.807323 63.658085 -10.274694
v -7.733202 63.407787 -11.711007
v -8.268280 61.063293 -11.886287
v -9.172047 56.986629 -11.955082
v -7.461589 56.964260 -11.477888
v -7.395146 54.348129 -11.106659
v -7.104311 48.765347 -13.382929
v -4.981904 48.718403 -13.839449
v -4.995888 48.704239 -11.136947
v -7.136631 48.704235 -11.163616
v -7.297599 50.891197 -11.545081
v -7.107139 50.934177 -8.749905
v -7.294218 54.142601 -8.875719
v -7.256164 56.913052 -9.236668
v -9.232294 56.978500 -10.797109
v -8.356753 61.438236 -10.566038
v -7.819209 57.017941 -8.548494
v -7.168949 48.704235 -8.625832
v -4.995888 48.704239 -8.041035
v -4.962761 50.668324 -14.316223
v 0.241202 50.671730 -14.316907
v 0.241262 49.088173 -14.856977
v 5.382409 48.830269 -14.804745
v 0.232003 47.181107 -14.483646
v 5.372439 46.968315 -14.202823
v 0.241202 45.835247 -12.252236
v 5.376508 45.805817 -11.890505
v 0.241202 46.469116 -9.478315
v 5.392235 46.478577 -9.471748
v 5.386725 48.704235 -8.041035
v 0.241202 48.704235 -8.041035
v -5.001399 46.478577 -9.471748
v -4.981602 46.968315 -14.202823
v -4.991572 48.830269 -14.804746
v 5.386725 48.704239 -11.136947
v 5.384036 62.606979 -13.556033
v 5.346323 57.015846 -14.238217
v 5.299950 58.037449 -15.330532
v 5.313493 62.454479 -15.302522
v 0.241727 62.601448 -13.577581
v 0.140544 62.278755 -15.219568
v -4.858771 62.406128 -15.294260
v -4.617897 58.398624 -16.088448
v 0.241183 58.163868 -16.150822
v 5.452110 54.409771 -15.386673
v 5.386156 54.151356 -13.599849
v 7.528263 50.990734 -13.515522
v 7.495149 48.765343 -13.382931
v 5.163187 58.266666 -16.115612
v 0.149546 65.974800 -10.067715
v 0.148849 65.921333 -11.884727
v 0.242513 64.318611 -13.687276
v 4.564652 64.392738 -13.773707
v 4.776527 65.625175 -11.837199
v 3.995667 65.905342 -10.086961
v 0.148931 64.825294 -8.517656
v 0.241183 60.917191 -8.331470
v 4.454365 64.225388 -8.569622
v 4.797781 60.126038 -8.747721
v 7.530725 61.006268 -13.699284
v 8.274504 56.991825 -13.798440
v 9.571754 56.987690 -11.954887
v 8.656114 61.067348 -11.895586
v 7.760158 56.986797 -13.321371
v 5.386734 57.017345 -13.359159
v 7.852427 56.964260 -11.477889
v 9.623130 56.978500 -10.797109
v 8.748007 61.438545 -10.554502
v 8.221636 63.427212 -11.754457
v 7.235081 63.224350 -13.450573
v 6.143060 64.476593 -13.395815
v 7.322295 64.812965 -11.921501
v 8.208175 63.661076 -10.273144
v 8.201226 61.191540 -8.548914
v 8.210046 57.017941 -8.548495
v 7.647003 56.913052 -9.236668
v 7.785984 54.348129 -11.106660
v 7.665771 54.022587 -13.375928
v 7.688437 50.891197 -11.545081
v 7.460199 50.693722 -8.778111
v 7.639706 54.310947 -8.915377
v 7.014317 65.101723 -10.347601
v 6.980861 63.584209 -8.419001
v 7.865732 62.925285 -8.559504
v 7.527469 48.704239 -11.163616
v 7.559787 48.704239 -8.625832
v 6.638063 54.368336 6.355042
v 7.036839 54.971840 7.527440
v -4.741527 50.950382 -7.959830
v -4.430392 54.115799 -7.825201
v -4.362180 56.799313 -8.123558
v 0.241202 56.134308 -7.764654
v -5.020045 57.186405 -8.181022
v 0.241183 58.787674 -8.454703
v 5.410882 57.186405 -8.181022
v 4.753017 56.799313 -8.123557
v 4.752744 54.302914 -7.775941
v 5.163675 50.673813 -8.041033
v 0.241202 54.058418 -7.616940
v 0.241202 51.303764 -7.937775
v -5.127894 52.485027 6.107563
v -0.029756 52.485027 6.610085
v 7.842877 47.355721 -1.430458
v 8.729847 47.569904 -1.307077
v -5.835182 57.505299 3.872334
v -7.009273 53.589844 5.363117
v -9.184796 47.228371 -3.949424
v -8.660249 47.240013 -3.196428
v 5.439794 40.713615 4.693548
v 6.767127 40.892723 2.310074
v 3.030874 42.772476 6.452778
v 5.216731 42.979614 4.817253
v 7.660662 41.397057 -0.874504
v 7.433609 43.432678 -0.646443
v -2.857570 46.890362 -6.156856
v -4.250136 39.703983 -8.306747
v -5.020820 42.620243 5.087286
v -5.340855 40.586243 4.999330
v -7.682640 41.463676 -0.285240
v -6.816884 41.152607 2.293432
v -2.718999 42.543621 6.386904
v -2.794844 40.484596 6.341700
v 3.936071 46.437664 -6.136162
v 6.274356 47.259163 -9.076542
v 5.570662 47.053478 -6.293283
v 5.602710 47.188618 -7.186987
v 6.958556 47.340630 -6.657760
v -7.911113 58.233189 -8.088164
v -9.960852 58.225475 -7.438159
v -10.040792 58.957825 -6.809989
v -9.859841 61.234272 -5.000375
v -6.175128 55.178459 -5.271729
v -8.098370 57.600430 -6.106802
vt 0.729598 0.527571
vt 0.465562 0.523465
vt 0.485354 0.525487
vt 0.484128 0.541848
vt 0.488295 0.567645
vt 0.747552 0.574630
vt 0.726167 0.569606
vt 0.730640 0.543931
vt 0.715934 0.539642
vt 0.751351 0.543441
vt 0.749452 0.525855
vt 0.463479 0.541051
vt 0.466788 0.572363
vt 0.852491 0.380938
vt 0.866797 0.366631
vt 0.859644 0.361266
vt 0.927005 0.270657
vt 0.932370 0.270657
vt 0.931774 0.256946
vt 0.924620 0.276022
vt 0.897199 0.276022
vt 0.897199 0.295097
vt 0.869778 0.276022
vt 0.868586 0.295097
vt 0.859644 0.294501
vt 0.868586 0.317750
vt 0.862624 0.312981
vt 0.867393 0.350536
vt 0.853683 0.342786
vt 0.856067 0.352920
vt 0.846529 0.366035
vt 0.840568 0.367227
vt 0.839972 0.383918
vt 0.897199 0.317153
vt 0.859644 0.310596
vt 0.862028 0.270657
vt 0.850106 0.270061
vt 0.847722 0.293309
vt 0.845933 0.310596
vt 0.845933 0.315961
vt 0.823877 0.380342
vt 0.838184 0.359478
vt 0.844145 0.358285
vt 0.841164 0.343979
vt 0.834607 0.317750
vt 0.832819 0.308808
vt 0.834607 0.292117
vt 0.850106 0.258138
vt 0.850702 0.246812
vt 0.838184 0.245620
vt 0.836992 0.256946
vt 0.836396 0.269464
vt 0.822685 0.268272
vt 0.820300 0.291521
vt 0.818512 0.308808
vt 0.829242 0.318346
vt 0.833415 0.345171
vt 0.867393 0.215814
vt 0.798840 0.358881
vt 0.812551 0.318346
vt 0.823877 0.256350
vt 0.825665 0.243832
vt 0.862624 0.256946
vt 0.867393 0.270657
vt 0.897199 0.270657
vt 0.897199 0.259331
vt 0.925813 0.259331
vt 0.897199 0.248004
vt 0.924620 0.248600
vt 0.897199 0.231313
vt 0.926409 0.231909
vt 0.897199 0.216410
vt 0.925813 0.216410
vt 0.926409 0.210449
vt 0.897795 0.210449
vt 0.869182 0.210449
vt 0.868586 0.216410
vt 0.869778 0.248004
vt 0.869182 0.259331
vt 0.943696 0.245024
vt 0.940715 0.225948
vt 0.956214 0.232505
vt 0.854279 0.225948
vt 0.850702 0.245024
vt 0.838184 0.232505
vt 0.926409 0.350536
vt 0.931774 0.313577
vt 0.925216 0.318346
vt 0.923428 0.344575
vt 0.896603 0.354709
vt 0.897199 0.346363
vt 0.870374 0.344575
vt 0.870374 0.318942
vt 0.897199 0.319538
vt 0.925216 0.295097
vt 0.934754 0.294501
vt 0.944292 0.270657
vt 0.944292 0.258138
vt 0.924024 0.318942
vt 0.872162 0.392860
vt 0.896603 0.392860
vt 0.896603 0.383918
vt 0.872162 0.383918
vt 0.871566 0.366035
vt 0.896603 0.366631
vt 0.922236 0.366035
vt 0.921640 0.383918
vt 0.921640 0.392860
vt 0.896603 0.406571
vt 0.872162 0.406571
vt 0.897199 0.432800
vt 0.872162 0.432800
vt 0.921640 0.406571
vt 0.922236 0.432800
vt 0.940715 0.342786
vt 0.947869 0.316557
vt 0.959195 0.318346
vt 0.953234 0.344575
vt 0.948465 0.310596
vt 0.934754 0.310596
vt 0.960983 0.309404
vt 0.965156 0.318942
vt 0.960387 0.345767
vt 0.949657 0.358881
vt 0.937735 0.353516
vt 0.926409 0.366631
vt 0.934158 0.361862
vt 0.941311 0.380938
vt 0.947273 0.366631
vt 0.955618 0.360074
vt 0.974694 0.349344
vt 0.981847 0.318942
vt 0.973502 0.308212
vt 0.959791 0.292713
vt 0.946676 0.293309
vt 0.958003 0.270061
vt 0.971117 0.269464
vt 0.970521 0.292117
vt 0.953234 0.367823
vt 0.953234 0.384514
vt 0.969925 0.380342
vt 0.968137 0.367227
vt 0.994962 0.359478
vt 0.971117 0.358285
vt 0.957407 0.257542
vt 0.970521 0.256946
vt 0.967540 0.245024
vt 0.956810 0.245620
vt 0.944888 0.246812
vt 0.819108 0.215814
vt 0.820897 0.229525
vt 0.830434 0.224160
vt 0.863817 0.193758
vt 0.863817 0.187797
vt 0.857260 0.187797
vt 0.856663 0.194354
vt 0.863817 0.205680
vt 0.855471 0.205680
vt 0.856067 0.214026
vt 0.842953 0.211641
vt 0.856067 0.215814
vt 0.842953 0.221179
vt 0.855471 0.224160
vt 0.842953 0.224160
vt 0.830434 0.215814
vt 0.821493 0.213430
vt 0.830434 0.214026
vt 0.822089 0.205680
vt 0.830434 0.205680
vt 0.829242 0.194354
vt 0.842953 0.206276
vt 0.842953 0.194354
vt 0.842953 0.187797
vt 0.822685 0.193758
vt 0.828646 0.187797
vt 0.822685 0.187797
vt 0.864413 0.213430
vt 0.195093 0.207436
vt 0.166052 0.208964
vt 0.225661 0.207436
vn -0.7110 -0.6903 0.1340
vn 0.3160 -0.9462 0.0691
vn 0.6374 -0.7470 0.1889
vn 0.8467 0.1225 -0.5178
vn 0.5849 0.8110 -0.0130
vn 0.2687 0.7228 -0.6367
vn -0.2235 0.9747 -0.0033
vn -0.3568 -0.2745 -0.8929
vn -0.8399 -0.3920 0.3753
vn -0.0000 -0.1330 -0.9911
vn -0.1802 0.9349 -0.3059
vn -0.0635 0.4008 -0.9139
vn -0.3268 0.6478 -0.6882
vn 0.6843 -0.3479 -0.6409
vn 0.8261 -0.0409 -0.5620
vn 0.9217 -0.1635 -0.3516
vn 0.7395 -0.3045 -0.6003
vn -0.0001 -0.7130 -0.7012
vn -0.0002 -0.0021 -1.0000
vn -0.7396 -0.3045 -0.6002
vn -0.7124 0.0183 -0.7015
vn -0.8675 0.0226 -0.4970
vn -0.8044 -0.2998 -0.5129
vn -0.7411 -0.4311 -0.5147
vn -0.3894 0.1572 -0.9075
vn -0.4341 0.1163 -0.8933
vn -0.6228 0.3026 -0.7215
vn -0.6505 0.6883 -0.3211
vn -0.5030 0.7366 0.4521
vn -0.1290 0.9329 0.3361
vn -0.0002 -0.6629 -0.7487
vn -0.4517 -0.3674 -0.8130
vn -0.8261 -0.0409 -0.5620
vn -0.4969 0.0085 -0.8678
vn -0.7120 0.0107 -0.7021
vn -0.5232 -0.7993 -0.2956
vn -0.2883 -0.8309 -0.4759
vn -0.2462 0.3498 0.9039
vn -0.8213 0.3737 0.4311
vn -0.9054 0.3196 -0.2794
vn -0.9229 0.2192 -0.3165
vn -0.8210 -0.4440 -0.3591
vn -0.4487 -0.8937 -0.0023
vn -0.9996 -0.0245 0.0140
vn -0.6766 -0.6551 -0.3363
vn -0.7997 -0.4774 -0.3640
vn -0.3489 -0.9372 -0.0001
vn -0.6933 -0.7207 0.0028
vn -0.9990 -0.0430 -0.0157
vn -0.8501 -0.0081 0.5266
vn -0.6574 0.0420 0.7524
vn -0.5752 -0.6870 0.4440
vn -0.7661 -0.5535 0.3268
vn -0.8840 0.2475 0.3966
vn -0.1937 -0.5943 0.7806
vn -0.2292 0.1116 0.9670
vn -0.6908 -0.5005 0.5219
vn -0.2748 -0.5322 0.8008
vn -0.6843 -0.3479 -0.6409
vn -0.0000 -0.3954 -0.9185
vn 0.0000 0.1328 -0.9911
vn 0.5813 -0.0654 -0.8110
vn 0.0006 -0.4845 -0.8748
vn 0.5913 -0.5915 -0.5482
vn -0.1498 -0.9466 -0.2857
vn 0.7275 -0.6861 0.0070
vn -0.1257 -0.8273 0.5476
vn 0.7316 -0.5500 0.4028
vn 0.2751 -0.5203 0.8084
vn 0.0025 -0.2063 0.9785
vn -0.6895 -0.6233 0.3690
vn -0.3131 -0.8034 -0.5064
vn -0.5811 -0.0654 -0.8112
vn 0.7096 -0.7045 -0.0102
vn 0.3935 0.1547 -0.9062
vn 0.7482 -0.4319 -0.5036
vn 0.8340 -0.3212 -0.4487
vn 0.5926 0.6661 -0.4529
vn -0.0018 0.8287 -0.5597
vn -0.0021 0.5445 -0.8388
vn -0.5628 0.6519 -0.5082
vn -0.3304 -0.1594 -0.9303
vn -0.0059 -0.7522 -0.6589
vn 0.7121 0.0167 -0.7019
vn 0.8699 0.0279 -0.4925
vn 0.4969 0.0086 -0.8678
vn 0.6766 -0.6551 -0.3363
vn 0.3706 -0.2059 -0.9057
vn -0.0035 0.9539 0.3002
vn -0.0007 0.9350 -0.3547
vn -0.0002 0.2045 -0.9789
vn 0.0432 0.3976 -0.9165
vn 0.1761 0.9358 -0.3055
vn 0.1276 0.9355 0.3294
vn -0.0046 0.5509 0.8346
vn -0.0013 -0.0140 0.9999
vn 0.0983 0.3853 0.9175
vn 0.0212 0.0275 0.9994
vn 0.4228 0.1000 -0.9007
vn 0.2865 -0.8315 -0.4760
vn 0.8211 -0.4437 -0.3590
vn 0.9283 0.1972 -0.3151
vn 0.5231 -0.7995 -0.2953
vn 0.4449 -0.3607 -0.8197
vn 0.4488 -0.8936 -0.0025
vn 0.8392 -0.5225 0.1508
vn 0.9778 0.2008 0.0591
vn 0.9098 0.3278 -0.2547
vn 0.6139 0.3042 -0.7285
vn 0.3122 0.6692 -0.6743
vn 0.6334 0.7140 -0.2984
vn 0.8626 0.4626 0.2049
vn 0.6536 0.0901 0.7514
vn 0.2888 -0.5156 0.8067
vn 0.5720 -0.6885 0.4458
vn 0.9994 -0.0254 0.0221
vn 0.7120 0.0107 -0.7021
vn 0.9990 -0.0430 -0.0124
vn 0.8447 0.0081 0.5351
vn 0.6582 0.0380 0.7519
vn 0.4404 0.8454 0.3022
vn 0.2924 0.3857 0.8750
vn 0.6697 0.3601 0.6495
vn 0.6959 -0.7181 0.0049
vn 0.6998 -0.4810 0.5282
vn -0.1659 -0.0176 0.9860
vn -0.1417 0.0222 0.9897
vn -0.2416 -0.0160 0.9702
vn -0.0016 0.1173 0.9931
vn -0.1095 -0.1504 0.9826
vn 0.0004 0.1296 0.9916
vn 0.1100 -0.1510 0.9824
vn 0.2467 -0.0106 0.9690
vn 0.1482 0.0210 0.9887
vn 0.1699 -0.0139 0.9854
vn -0.0042 -0.0225 0.9997
vn 0.0034 -0.0707 0.9975
vn -0.3431 0.9206 0.1867
vn 0.0156 0.9779 0.2083
vn -0.1549 0.9867 -0.0499
usemtl krieg_map
s 1
f 16/11/8 15/12/9 36/13/10 35/14/11 34/15/12 12/16/13 11/17/14 13/18/15 14/19/16
f 17/20/17 15/21/9 16/11/8
f 11/17/14 12/16/13 17/20/17
f 17/20/17 13/18/15 11/17/14
f 16/11/8 13/18/15 17/20/17
f 14/19/16 13/18/15 16/11/8
f 17/22/17 12/23/13 34/15/12
f 34/15/12 35/14/11 17/22/17
f 17/22/17 35/14/11 36/13/10
f 36/13/10 15/12/9 17/22/17
f 37/24/18 38/25/19 39/26/20
f 40/27/21 41/28/22 42/29/23
f 40/27/21 43/30/24 41/28/22
f 44/31/25 43/30/24 40/27/21
f 43/30/24 44/31/25 45/32/26
f 45/32/26 44/31/25 46/33/27
f 46/33/27 47/34/28 45/32/26
f 48/35/29 47/34/28 46/33/27
f 49/36/30 47/34/28 48/35/29
f 48/35/29 50/37/31 49/36/30
f 50/37/31 51/38/32 49/36/30
f 52/39/33 51/38/32 50/37/31
f 38/25/19 51/38/32 52/39/33
f 52/39/33 53/40/34 38/25/19
f 53/40/34 39/26/20 38/25/19
f 54/41/35 39/26/20 53/40/34
f 39/26/20 54/41/35 37/24/18
f 37/24/18 54/41/35 55/42/36
f 55/42/36 56/43/37 37/24/18
f 45/32/26 47/34/28 49/36/30
f 49/36/30 57/44/38 45/32/26
f 48/35/29 58/45/39 50/37/31
f 46/33/27 59/46/40 48/35/29
f 48/35/29 59/46/40 60/47/41
f 60/47/41 61/48/42 48/35/29
f 58/45/39 48/35/29 61/48/42
f 61/48/42 62/49/43 58/45/39
f 50/37/31 58/45/39 62/49/43
f 62/49/43 63/50/44 50/37/31
f 50/37/31 63/50/44 52/39/33
f 64/51/45 56/43/37 55/42/36
f 66/52/46 55/42/36 54/41/35
f 54/41/35 67/53/47 66/52/46
f 53/40/34 67/53/47 54/41/35
f 68/54/48 67/53/47 53/40/34
f 53/40/34 52/39/33 68/54/48
f 69/55/49 68/54/48 52/39/33
f 52/39/33 63/50/44 69/55/49
f 70/56/50 69/55/49 63/50/44
f 63/50/44 62/49/43 70/56/50
f 71/57/51 70/56/50 62/49/43
f 72/58/52 73/59/53 74/60/54
f 74/60/54 75/61/55 72/58/52
f 72/58/52 75/61/55 76/62/56
f 77/63/57 76/62/56 75/61/55
f 71/57/51 76/62/56 77/63/57
f 77/63/57 78/64/58 71/57/51
f 71/57/51 78/64/58 79/65/59
f 79/65/59 70/56/50 71/57/51
f 80/66/60 70/56/50 79/65/59
f 69/55/49 70/56/50 80/66/60
f 68/54/48 69/55/49 80/66/60
f 80/66/60 81/67/61 68/54/48
f 67/53/47 68/54/48 81/67/61
f 81/67/61 66/52/46 67/53/47
f 55/42/36 66/52/46 81/67/61 80/66/60 82/68/62 65/69/63 64/51/45
f 79/65/59 82/70/62 80/66/60
f 75/61/55 83/71/64 77/63/57
f 84/72/65 83/71/64 75/61/55
f 75/61/55 74/60/54 84/72/65
f 62/49/43 61/48/42 71/57/51
f 76/62/56 71/57/51 61/48/42
f 61/48/42 60/47/41 76/62/56
f 76/62/56 60/47/41 72/58/52
f 73/73/53 72/58/52 60/47/41
f 60/47/41 59/46/40 73/73/53
f 73/73/53 59/46/40 85/74/66
f 46/33/27 85/74/66 59/46/40
f 85/74/66 46/33/27 44/31/25
f 44/31/25 86/75/67 85/74/66
f 40/27/21 86/75/67 44/31/25
f 87/76/68 86/75/67 40/27/21
f 40/27/21 88/77/69 87/76/68
f 89/78/70 87/76/68 88/77/69
f 88/77/69 90/79/71 89/78/70
f 91/80/72 89/78/70 90/79/71
f 90/79/71 92/81/73 91/80/72
f 93/82/74 91/80/72 92/81/73
f 92/81/73 94/83/75 93/82/74
f 93/82/74 94/83/75 95/84/76
f 95/84/76 96/85/77 93/82/74
f 93/82/74 96/85/77 84/86/65
f 84/86/65 97/87/78 93/82/74
f 98/88/79 89/78/70 91/80/72
f 89/78/70 98/88/79 99/89/80
f 99/89/80 87/76/68 89/78/70
f 87/76/68 99/89/80 85/74/66
f 85/74/66 86/75/67 87/76/68
f 42/29/23 88/77/69 40/27/21
f 90/79/71 88/77/69 42/29/23
f 92/81/73 90/79/71 42/29/23
f 42/29/23 100/90/81 92/81/73
f 94/91/75 92/81/73 100/90/81
f 100/90/81 95/92/76 94/91/75
f 85/74/66 99/89/80 73/73/53
f 99/89/80 98/88/79 73/73/53
f 91/80/72 93/82/74 97/93/78 74/94/54 73/73/53 98/88/79
f 97/93/78 84/95/65 74/94/54
f 101/96/82 102/97/83 103/98/84
f 104/99/85 101/96/82 103/98/84
f 105/100/86 101/96/82 104/99/85
f 104/99/85 106/101/87 105/100/86
f 105/100/86 106/101/87 107/102/88
f 108/103/89 107/102/88 106/101/87
f 107/102/88 108/103/89 49/36/30
f 49/36/30 108/103/89 109/104/90
f 109/104/90 57/44/38 49/36/30
f 103/98/84 57/44/38 109/104/90
f 45/32/26 57/44/38 103/98/84
f 103/98/84 110/105/91 45/32/26
f 45/32/26 110/105/91 43/30/24
f 43/30/24 110/105/91 111/106/92
f 111/106/92 41/28/22 43/30/24
f 112/107/93 41/28/22 111/106/92
f 42/29/23 41/28/22 112/107/93
f 112/107/93 113/108/94 42/29/23
f 111/106/92 110/105/91 103/98/84
f 114/109/95 109/104/90 106/101/87
f 106/101/87 109/104/90 108/103/89
f 106/101/87 104/99/85 114/109/95
f 103/98/84 114/109/95 104/99/85
f 109/104/90 114/109/95 103/98/84
f 56/110/37 115/111/96 116/112/97
f 116/112/97 37/113/18 56/110/37
f 38/114/19 37/113/18 116/112/97
f 116/112/97 117/115/98 38/114/19
f 51/38/32 38/114/19 117/115/98
f 117/115/98 105/100/86 51/38/32
f 107/102/88 51/38/32 105/100/86
f 49/36/30 51/38/32 107/102/88
f 101/96/82 105/100/86 117/115/98
f 117/115/98 118/116/99 101/96/82
f 118/116/99 117/115/98 116/112/97
f 116/112/97 119/117/100 118/116/99
f 120/118/101 119/117/100 116/112/97
f 116/112/97 115/111/96 120/118/101
f 120/118/101 115/111/96 121/119/102
f 121/119/102 115/111/96 56/110/37
f 56/110/37 64/120/45 121/119/102
f 122/121/103 121/119/102 64/120/45
f 64/120/45 65/122/63 122/121/103
f 121/119/102 123/123/104 120/118/101
f 123/123/104 121/119/102 122/121/103
f 122/121/103 124/124/105 123/123/104
f 102/97/83 101/96/82 125/125/106
f 125/125/106 126/126/107 102/97/83
f 127/127/108 126/126/107 125/125/106
f 125/125/106 128/128/109 127/127/108
f 129/129/110 130/130/111 102/97/83
f 102/97/83 126/126/107 129/129/110
f 131/131/112 129/129/110 126/126/107
f 126/126/107 127/127/108 131/131/112
f 131/131/112 127/127/108 132/132/113
f 132/132/113 127/127/108 128/128/109
f 128/128/109 133/133/114 132/132/113
f 133/133/114 128/128/109 134/134/115
f 135/135/116 134/134/115 128/128/109
f 128/128/109 125/125/106 135/135/116
f 135/135/116 125/125/106 118/136/99
f 101/96/82 118/136/99 125/125/106
f 136/137/117 118/136/99 119/138/100
f 118/136/99 136/137/117 135/135/116
f 135/135/116 136/137/117 137/139/118
f 137/139/118 134/134/115 135/135/116
f 138/140/119 134/134/115 137/139/118
f 134/134/115 138/140/119 133/133/114
f 139/141/120 133/133/114 138/140/119
f 132/132/113 133/133/114 139/141/120
f 139/141/120 140/142/121 132/132/113
f 132/132/113 140/142/121 141/143/122
f 141/143/122 131/131/112 132/132/113
f 142/144/123 131/131/112 141/143/122
f 129/129/110 131/131/112 142/144/123
f 142/144/123 143/145/124 129/129/110
f 130/130/111 129/129/110 143/145/124
f 143/145/124 111/106/92 130/130/111
f 130/130/111 111/106/92 102/97/83
f 103/98/84 102/97/83 111/106/92
f 111/106/92 143/145/124 112/107/93
f 144/146/125 112/107/93 143/145/124
f 143/145/124 142/144/123 144/146/125
f 145/147/126 144/146/125 142/144/123
f 142/144/123 146/148/127 145/147/126
f 141/143/122 146/148/127 142/144/123
f 119/138/100 137/139/118 136/137/117
f 147/149/128 137/139/118 119/138/100
f 119/138/100 120/150/101 147/149/128
f 147/149/128 120/150/101 123/151/104
f 123/151/104 148/152/129 147/149/128
f 148/152/129 123/151/104 124/153/105
f 124/153/105 139/141/120 148/152/129
f 139/141/120 149/154/130 148/152/129
f 138/140/119 149/154/130 139/141/120
f 148/152/129 149/154/130 138/140/119
f 138/140/119 147/149/128 148/152/129
f 137/139/118 147/149/128 138/140/119
f 113/108/94 112/107/93 144/146/125
f 144/146/125 150/155/131 113/108/94
f 150/155/131 144/146/125 145/147/126
f 145/147/126 151/156/132 150/155/131
f 150/155/131 151/156/132 95/157/76
f 95/157/76 100/158/81 150/155/131
f 113/108/94 150/155/131 100/158/81
f 100/158/81 42/159/23 113/108/94
f 140/160/121 139/161/120 124/162/105
f 77/163/57 83/164/64 84/165/65
f 84/165/65 154/166/133 77/163/57
f 78/167/58 77/163/57 154/166/133
f 154/166/133 155/168/134 78/167/58
f 78/167/58 155/168/134 156/169/135
f 157/170/136 156/169/135 155/168/134
f 158/171/137 156/169/135 157/170/136
f 157/170/136 159/172/138 158/171/137
f 65/173/63 158/171/137 159/172/138
f 159/172/138 122/174/103 65/173/63
f 124/162/105 122/174/103 159/172/138
f 159/172/138 160/175/139 124/162/105
f 124/162/105 160/175/139 140/160/121
f 141/176/122 140/160/121 160/175/139
f 160/175/139 161/177/140 141/176/122
f 146/178/127 141/176/122 161/177/140
f 161/177/140 162/179/141 146/178/127
f 146/178/127 162/179/141 163/180/142
f 160/175/139 159/172/138 157/170/136
f 157/170/136 161/177/140 160/175/139
f 162/179/141 161/177/140 157/170/136
f 157/170/136 164/181/143 162/179/141
f 155/168/134 164/181/143 157/170/136
f 165/182/144 164/181/143 155/168/134
f 155/168/134 154/166/133 165/182/144
f 162/179/141 164/181/143 165/182/144
f 165/182/144 163/180/142 162/179/141
f 163/180/142 165/182/144 96/183/77
f 96/183/77 165/182/144 154/166/133
f 154/166/133 84/165/65 96/183/77
f 163/180/142 145/184/126 146/178/127
f 145/184/126 163/180/142 95/185/76
f 96/183/77 95/185/76 163/180/142
f 95/185/76 151/186/132 145/184/126
f 82/68/62 158/171/137 65/173/63
f 158/171/137 82/68/62 79/187/59
f 79/187/59 156/169/135 158/171/137
f 156/169/135 79/187/59 78/167/58
f 192/188/145 191/189/146 190/190/147
l 19 18
l 20 21
l 22 23
l 24 25
l 27 26
l 29 28
l 31 30
l 32 33
l 152 153
l 169 168
l 171 170
l 172 173
l 166 167
l 175 174
l 177 176
l 179 178
l 181 180
l 189 188
l 182 183
l 185 184
l 186 187
l 193 194
l 195 196
l 197 198
